# AST/ASF file generated using VICON BodyLanguage
# -----------------------------------------------
:version 1.10
:name VICON
:units
  mass 1.0
  length 0.45
  angle deg
:documentation
   .ast/.asf automatically generated from VICON data using
   VICON BodyBuilder and BodyLanguage model FoxedUp or BRILLIANT.MOD
:root
   order TX TY TZ RX RY RZ
   axis XYZ
   position 0 0 0  
   orientation 0 0 0 
:bonedata
  begin
     id 1 
     name lhipjoint
     direction 0.54267 -0.795011 0.271047 
     length 2.39899 
     axis 0 0 0  XYZ
  end
  begin
     id 2 
     name lfemur
     direction 0.34202 -0.939693 0  
     length 7.49701  
     axis 0 0 20  XYZ
    dof rx ry rz
    limits (-160.0 20.0)
           (-70.0 70.0)
           (-60.0 70.0)
  end
  begin
     id 3 
     name ltibia
     direction 0.34202 -0.939693 0   
     length 8.1668   
     axis 0 0 20   XYZ
    dof rx
    limits (-10.0 170.0)
  end
  begin
     id 4 
     name lfoot
     direction 0.0736283 -0.202292 0.976554   
     length 2.13544   
     axis -90 7.62852e-016 20   XYZ
    dof rx rz
    limits (-45.0 90.0)
           (-70.0 20.0)
  end
  begin
     id 5 
     name ltoes
     direction 1.53557e-011 -4.22024e-011 1   
     length 1.07411   
     axis -90 7.62852e-016 20   XYZ
    dof rx
    limits (-90.0 20.0)
  end
  begin
     id 6 
     name rhipjoint
     direction -0.538061 -0.797813 0.272002   
     length 2.39057  
     axis 0 0 0  XYZ 
  end
  begin
     id 7 
     name rfemur
     direction -0.34202 -0.939693 0   
     length 7.50152   
     axis 0 0 -20   XYZ
    dof rx ry rz
    limits (-160.0 20.0)
           (-70.0 70.0)
           (-70.0 60.0)
  end
  begin
     id 8 
     name rtibia
     direction -0.34202 -0.939693 0   
     length 8.05793   
     axis 0 0 -20   XYZ
    dof rx
    limits (-10.0 170.0)
 end
 begin
     id 9 
     name rfoot
     direction -0.0765195 -0.210236 0.974652   
     length 2.28698  
     axis -90 -7.62852e-016 -20   XYZ
    dof rx rz
    limits (-45.0 90.0)
           (-20.0 70.0)
  end
  begin
     id 10 
     name rtoes
     direction -1.53542e-011 -4.21847e-011 1   
     length 1.14762   
     axis -90 -7.62852e-016 -20   XYZ
    dof rx
    limits (-90.0 20.0)
  end
  begin
     id 11 
     name lowerback
     direction -0.0217239 0.996592 -0.0795765   
     length 2.08176   
     axis 0 0 0   XYZ
    dof rx ry rz
    limits (-20.0 45.0)
           (-30.0 30.0)
           (-30.0 30.0)
  end
  begin
     id 12 
     name upperback
     direction -0.00563773 0.999651 -0.0258155   
     length 2.08898   
     axis 0 0 0   XYZ
    dof rx ry rz
    limits (-20.0 45.0)
           (-30.0 30.0)
           (-30.0 30.0)
  end
  begin
     id 13 
     name thorax
     direction 0.0032706 0.999923 0.0119599   
     length 2.0968   
     axis 0 0 0   XYZ
    dof rx ry rz
    limits (-20.0 45.0)
           (-30.0 30.0)
           (-30.0 30.0)
  end
  begin
     id 14 
     name lowerneck
     direction -0.0285886 0.99568 0.0883427   
     length 1.81272   
     axis 0 0 0   XYZ
    dof rx ry rz
    limits (-20.0 45.0)
           (-30.0 30.0)
           (-30.0 30.0)
  end
  begin
     id 15 
     name upperneck
     direction 0.0807535 0.97985 -0.18268   
     length 1.82518   
     axis 0 0 0   XYZ
    dof rx ry rz
    limits (-20.0 45.0)
           (-30.0 30.0)
           (-30.0 30.0)
  end
  begin
     id 16
     name head
     direction 0.0236605 0.997053 -0.0729767  
     length 1.84443  
     axis 0 0 0   XYZ
    dof rx ry rz
    limits (-20.0 45.0)
           (-30.0 30.0)
           (-30.0 30.0)
  end
  begin
     id 17 
     name lclavicle
     direction 0.918986 0.39378 -0.0200683  
     length 3.27822  
     axis 0 0 0   XYZ
    dof ry rz
    limits (-20.0 10.0)
           (0.0 20.0)
  end
  begin
     id 18 
     name lhumerus
     direction 1 -4.4897e-011 2.09544e-027   
     length 5.5568   
     axis 180 -30 -90   XYZ
    dof rx ry rz
    limits (-60.0 90.0)
           (-90.0 90.0)
           (-90.0 90.0)
  end
  begin
     id 19
     name lradius
     direction 1 -4.48957e-011 -1.27696e-026   
     length 3.63979   
     axis 180 -30 -90   XYZ
    dof rx
    limits (-10.0 170.0)
  end
  begin
     id 20
     name lwrist
     direction 1 -4.49001e-011 -1.49001e-026   
     length 1.8199   
     axis 9.0955e-015 90 90   XYZ
    dof ry
    limits (-180.0 0.0)
 end
  begin
     id 21 
     name lhand
     direction 1 -4.48709e-011 -2.9758e-026   
     length 0.569419   
     axis 1.90115e-014 90 90   XYZ
    dof rx rz
    limits (-90.0 90.0)
           (-45.0 45.0)
  end
  begin
     id 22 
     name lfingers
     direction 1 -4.49175e-011 -5.96505e-026   
     length 0.45908   
     axis 3.80223e-014 90 90   XYZ
    dof rx
    limits (0.0 90.0)
  end
  begin
     id 23
     name lthumb
     direction 0.707107 -6.34864e-011 0.707107   
     length 0.65915   
     axis -90 45 -3.84942e-014   XYZ
    dof rx rz
    limits (-45.0 45.0)
           (-45.0 45.0)
  end
  begin
     id 24 
     name rclavicle
     direction -0.911913 0.396426 -0.106115   
     length 3.46301  
     axis 0 0 0   XYZ 
    dof ry rz
    limits (-10.0 20.0)
           (-20.0 0.0)
  end
  begin
     id 25 
     name rhumerus
     direction -1 -4.48965e-011 7.78516e-028  
     length 5.34339   
     axis 180 30 90   XYZ
    dof rx ry rz
    limits (-90.0 60.0)
           (-90.0 90.0)
           (-90.0 90.0)
  end
  begin
     id 26 
     name rradius
     direction -1 -4.48948e-011 -5.79823e-027   
     length 3.65101   
     axis 180 30 90   XYZ
    dof rx
    limits (-10.0 170.0)
  end
  begin
     id 27 
     name rwrist
     direction -1 -4.48995e-011 -1.48996e-026   
     length 1.8255   
     axis 9.0955e-015 -90 -90   XYZ
    dof ry
    limits (-180.0 0.0)
  end
  begin
     id 28
     name rhand
     direction -1 -4.48957e-011 -2.97937e-026   
     length 0.694249   
     axis 1.90115e-014 -90 -90   XYZ
    dof rx rz
    limits (-90.0 90.0)
           (-45.0 45.0)
  end
  begin
     id 29
     name rfingers
     direction -1 -4.4898e-011 -5.95943e-026   
     length 0.559721   
     axis 3.80223e-014 -90 -90   XYZ
    dof rx
    limits (0.0 90.0)
  end
  begin
     id 30
     name rthumb
     direction -0.707107 -6.34969e-011 0.707107   
     length 0.803651   
     axis -90 -45 3.84942e-014   XYZ
    dof rx rz
    limits (-45.0 45.0)
           (-45.0 45.0)
  end
:hierarchy
  begin
    root lhipjoint rhipjoint lowerback
    lhipjoint lfemur
    lfemur ltibia
    ltibia lfoot
    lfoot ltoes
    rhipjoint rfemur
    rfemur rtibia
    rtibia rfoot
    rfoot rtoes
    lowerback upperback
    upperback thorax
    thorax lowerneck lclavicle rclavicle
    lowerneck upperneck
    upperneck head
    lclavicle lhumerus
    lhumerus lradius
    lradius lwrist
    lwrist lhand lthumb
    lhand lfingers
    rclavicle rhumerus
    rhumerus rradius
    rradius rwrist
    rwrist rhand rthumb
    rhand rfingers
  end

#!OML:ASF H:\Terrain\Walking\May29\JustinRory\rory.ASF
:FULLY-SPECIFIED
:DEGREES
32
root 12.424 17.9175 -13.9802 -4.18533 6.36921 2.69865
lowerback 3.85411 -0.447666 -3.34273
upperback 1.87317 -0.69975 1.63339
thorax -0.173769 -0.377076 3.58494
lowerneck -14.0638 -2.90113 -3.70252
upperneck 26.7372 -2.83866 -1.09988
head 11.0053 -1.79331 -0.150316
rclavicle -1.13928e-014 2.3059e-014
rhumerus -22.7969 -9.66483 -80.8321
rradius 38.3924
rwrist -5.28241
rhand -20.2676 33.2903
rfingers 7.12502
rthumb 6.08143 3.39757
lclavicle -1.13928e-014 2.3059e-014
lhumerus -26.3303 -3.26991 89.3177
lradius 52.1618
lwrist 18.5996
lhand -30.5359 23.2716
lfingers 7.12502
lthumb -3.83498 53.2168
rfemur -20.8528 4.15824 17.8904
rtibia 33.1671
rfoot -4.99382 -6.82946
rtoes 12.5174
lfemur -1.52804 -0.817904 -18.9831
ltibia 53.9085
lfoot 4.32902 -4.47737
ltoes -10.0211
33
root 12.4058 17.9312 -13.8511 -4.2708 6.60251 2.37601
lowerback 3.96142 -0.302704 -2.9843
upperback 1.88883 -0.496619 1.64176
thorax -0.23906 -0.272099 3.38435
lowerneck -13.9843 -3.10761 -3.47714
upperneck 26.8039 -3.20211 -1.07197
head 11.0141 -1.93194 -0.227029
rclavicle 5.09386e-015 -9.54166e-015
rhumerus -21.9889 -9.98965 -81.1068
rradius 38.588
rwrist -5.07449
rhand -20.6888 33.9241
rfingers 7.12502
rthumb 5.67478 4.02009
lclavicle 5.09386e-015 -9.54166e-015
lhumerus -26.619 -3.88994 89.3736
lradius 51.7432
lwrist 19.4366
lhand -31.172 24.2551
lfingers 7.12502
lthumb -4.44926 54.1883
rfemur -20.2525 4.1168 18.3758
rtibia 33.0775
rfoot -5.2416 -7.11083
rtoes 11.8207
lfemur -2.83691 -0.83341 -18.5252
ltibia 55.7707
lfoot 3.42452 -3.59665
ltoes -9.43353
34
root 12.3903 17.9495 -13.7262 -4.39615 6.80748 2.39307
lowerback 4.20887 -0.204588 -2.89077
upperback 1.79373 -0.369601 1.5303
thorax -0.486968 -0.201648 3.21353
lowerneck -13.7073 -3.2926 -3.21737
upperneck 27.0326 -3.48812 -1.26785
head 11.0384 -2.06062 -0.378197
rclavicle -1.94188e-014 1.11319e-014
rhumerus -21.5932 -9.97251 -81.4347
rradius 38.9566
rwrist -4.79904
rhand -20.8161 34.1307
rfingers 7.12502
rthumb 5.55188 4.22342
lclavicle -1.94188e-014 1.11319e-014
lhumerus -26.953 -2.78589 89.9304
lradius 50.7418
lwrist 18.4969
lhand -30.0329 23.3836
lfingers 7.12502
lthumb -3.3492 53.3371
rfemur -19.5324 4.1512 18.4759
rtibia 32.9098
rfoot -5.14599 -7.38074
rtoes 9.08395
lfemur -4.06696 -0.836367 -18.4793
ltibia 57.4188
lfoot 2.55088 -2.71738
ltoes -10.1687
35
root 12.372 17.9734 -13.6035 -4.55293 6.90114 2.08874
lowerback 4.2644 -0.14259 -2.66708
upperback 1.86017 -0.278147 1.65587
thorax -0.457433 -0.156671 3.21303
lowerneck -13.9376 -3.4366 -3.54651
upperneck 27.5866 -3.63681 -1.11847
head 11.3087 -2.1453 -0.301346
rclavicle 1.84746e-014 1.59028e-015
rhumerus -20.8681 -9.81151 -81.6641
rradius 39.1971
rwrist -4.36878
rhand -20.1616 34.1662
rfingers 7.12502
rthumb 6.18379 4.27647
lclavicle 1.84746e-014 1.59028e-015
lhumerus -26.1536 -0.389834 90.7491
lradius 48.7872
lwrist 16.354
lhand -28.7546 22.7035
lfingers 7.12502
lthumb -2.11471 52.6728
rfemur -18.7978 4.38371 18.9595
rtibia 32.7253
rfoot -4.83673 -7.71698
rtoes 4.72616
lfemur -5.24921 -0.751649 -18.0119
ltibia 58.8335
lfoot 1.68551 -1.97528
ltoes -11.085
36
root 12.356 17.9899 -13.4889 -4.51347 6.96231 1.63247
lowerback 4.0541 -0.0104794 -2.31488
upperback 1.93426 -0.0831293 1.86406
thorax -0.279178 -0.0617851 3.21959
lowerneck -14.0048 -3.70184 -4.10677
upperneck 27.8279 -3.96477 -0.765956
head 11.444 -2.30806 -0.128739
rclavicle 2.49226e-014 -1.11319e-014
rhumerus -19.9054 -9.92481 -81.7592
rradius 39.3067
rwrist -4.21867
rhand -19.2708 34.4552
rfingers 7.12502
rthumb 7.04372 4.59238
lclavicle 2.49226e-014 -1.11319e-014
lhumerus -31.0231 -2.40888 90.0207
lradius 53.2568
lwrist 18.7255
lhand -28.0963 23.6446
lfingers 7.12502
lthumb -1.47888 53.6192
rfemur -18.3255 4.57614 19.5915
rtibia 32.4942
rfoot -6.66145 -8.24747
rtoes 13.421
lfemur -6.6212 -0.619676 -17.3754
ltibia 60.0515
lfoot 1.02722 -1.54794
ltoes -10.5662
37
root 12.3497 18.0085 -13.3748 -4.43515 7.10192 1.36181
lowerback 3.90225 0.154986 -1.95683
upperback 1.88408 0.152813 1.90284
thorax -0.262928 0.0587053 3.04747
lowerneck -13.5409 -3.99548 -4.36956
upperneck 27.7299 -4.40687 -0.530465
head 11.3356 -2.50571 -0.0489459
rclavicle -5.06901e-015 -4.77083e-015
rhumerus -19.2829 -10.0526 -81.8854
rradius 39.6271
rwrist -4.46128
rhand -19.3643 34.9386
rfingers 7.12502
rthumb 6.95347 5.0728
lclavicle -5.06901e-015 -4.77083e-015
lhumerus -25.0409 2.25204 92.0543
lradius 45.2753
lwrist 13.5947
lhand -28.24 22.8396
lfingers 7.12502
lthumb -1.61766 52.8133
rfemur -17.8885 4.52307 19.9691
rtibia 32.1917
rfoot -6.79064 -8.39513
rtoes 14.4863
lfemur -7.9445 -0.565891 -17.0449
ltibia 61.0647
lfoot 0.158877 -1.3014
ltoes -9.48021
38
root 12.3362 18.034 -13.2631 -4.50148 7.14064 0.97796
lowerback 4.05456 0.295948 -1.459
upperback 1.83322 0.357031 1.8396
thorax -0.411308 0.166241 2.69241
lowerneck -13.168 -4.10903 -4.05861
upperneck 27.6054 -4.67363 -0.50658
head 11.2085 -2.59151 -0.118678
rclavicle 2.41523e-014 -3.18055e-015
rhumerus -18.7708 -10.1948 -82.3369
rradius 40.0212
rwrist -4.6436
rhand -18.4709 35.6198
rfingers 7.12502
rthumb 7.81582 5.78427
lclavicle 2.41523e-014 -3.18055e-015
lhumerus -27.9863 -1.69038 90.3967
lradius 47.5233
lwrist 17.7051
lhand -28.5861 21.6282
lfingers 7.12502
lthumb -1.95196 51.599
rfemur -17.3238 4.5911 20.5301
rtibia 31.9065
rfoot -7.03133 -8.58019
rtoes 15.1426
lfemur -9.10493 -0.420076 -16.5229
ltibia 61.8735
lfoot -0.777819 -1.20456
ltoes -7.86452
39
root 12.3121 18.0519 -13.1607 -4.58412 7.13708 0.335124
lowerback 4.37953 0.36874 -0.798669
upperback 1.74472 0.480001 1.86614
thorax -0.686073 0.233758 2.34046
lowerneck -12.9867 -4.2015 -3.88825
upperneck 27.5284 -4.88765 -0.399951
head 11.1438 -2.65833 -0.132241
rclavicle -5.19325e-015 -9.54166e-015
rhumerus -18.1185 -10.2151 -82.893
rradius 40.1051
rwrist -4.75327
rhand -17.9958 36.4257
rfingers 7.12502
rthumb 8.27443 6.60779
lclavicle -5.19325e-015 -9.54166e-015
lhumerus -28.7848 -1.03063 90.1058
lradius 47.2807
lwrist 17.0188
lhand -28.7675 20.3254
lfingers 7.12502
lthumb -2.12718 50.2945
rfemur -16.7955 4.88812 21.4332
rtibia 31.6543
rfoot -7.49853 -9.00912
rtoes 16.0172
lfemur -10.3514 -0.238184 -15.6207
ltibia 62.5337
lfoot -1.32008 -1.36822
ltoes -6.67036
40
root 12.2978 18.065 -13.0497 -4.62137 7.12853 0.0985579
lowerback 4.43826 0.476387 -0.542705
upperback 1.78933 0.633815 1.87274
thorax -0.677726 0.311195 2.19534
lowerneck -13.093 -4.39408 -4.13216
upperneck 27.6236 -5.16831 -0.15093
head 11.2229 -2.77931 -0.0436019
rclavicle -6.83322e-016 -6.36111e-015
rhumerus -17.0836 -10.2825 -83.2864
rradius 39.9765
rwrist -4.82641
rhand -19.5757 36.7978
rfingers 7.12502
rthumb 6.74944 6.92536
lclavicle -6.83322e-016 -6.36111e-015
lhumerus -29.1626 -0.738741 89.8817
lradius 46.8434
lwrist 16.5499
lhand -28.2375 20.603
lfingers 7.12502
lthumb -1.61527 50.5766
rfemur -16.2481 5.03998 21.8409
rtibia 31.4231
rfoot -8.05263 -9.22132
rtoes 17.1892
lfemur -11.4115 -0.0877485 -15.3037
ltibia 62.9273
lfoot -1.85929 -1.44111
ltoes -7.75372
41
root 12.2958 18.083 -12.932 -4.60266 7.13893 0.420174
lowerback 4.30483 0.667608 -0.76185
upperback 1.95413 0.876616 1.75658
thorax -0.445826 0.429417 2.18942
lowerneck -13.5332 -4.64608 -4.54734
upperneck 28.0011 -5.47916 0.111923
head 11.4878 -2.92707 0.0615911
rclavicle -2.96935e-015 -2.94201e-014
rhumerus -15.7763 -10.6865 -83.5518
rradius 39.8668
rwrist -4.67673
rhand -19.6109 36.5076
rfingers 7.12502
rthumb 6.71543 6.63406
lclavicle -2.96935e-015 -2.94201e-014
lhumerus -28.9259 -0.585048 89.9252
lradius 45.7448
lwrist 16.0582
lhand -27.4234 22.0552
lfingers 7.12502
lthumb -0.829068 52.0334
rfemur -15.7018 4.93624 21.5821
rtibia 31.236
rfoot -8.26602 -9.18046
rtoes 17.5275
lfemur -12.2422 -0.044306 -15.7482
ltibia 63.032
lfoot -2.54956 -1.27724
ltoes -8.55665
42
root 12.2943 18.1035 -12.8237 -4.39543 7.34363 0.779685
lowerback 4.24848 0.802621 -0.904679
upperback 1.87109 1.0501 1.57165
thorax -0.506326 0.517086 2.07133
lowerneck -13.6631 -4.85338 -4.92953
upperneck 28.4808 -5.71967 0.271544
head 11.7281 -3.05401 0.139661
rclavicle -2.84262e-014 8.34896e-015
rhumerus -15.0241 -11.0369 -83.7721
rradius 39.9039
rwrist -4.06798
rhand -19.4068 36.6098
rfingers 7.12502
rthumb 6.91247 6.74264
lclavicle -2.84262e-014 8.34896e-015
lhumerus -29.0338 -0.42986 90.0312
lradius 44.5205
lwrist 15.0116
lhand -27.1019 22.6883
lfingers 7.12502
lthumb -0.518523 52.6675
rfemur -15.4346 4.67707 21.261
rtibia 31.0843
rfoot -7.79166 -9.28709
rtoes 15.0774
lfemur -13.3408 -0.220391 -16.2503
ltibia 62.9308
lfoot -3.21433 -1.01973
ltoes -9.60779
43
root 12.2862 18.1176 -12.7183 -4.21971 7.40403 0.882513
lowerback 4.30704 0.909827 -0.84585
upperback 1.65033 1.19522 1.43062
thorax -0.76765 0.593437 1.88331
lowerneck -12.9952 -4.96203 -5.24629
upperneck 28.4719 -5.89922 0.508523
head 11.6159 -3.14314 0.27224
rclavicle 9.31803e-017 -1.03368e-014
rhumerus -14.6352 -10.9397 -84.0841
rradius 39.9981
rwrist -3.57877
rhand -20.515 37.1424
rfingers 7.12502
rthumb 5.8426 7.24293
lclavicle 9.31803e-017 -1.03368e-014
lhumerus -29.7536 -0.421558 89.8023
lradius 43.6123
lwrist 13.9427
lhand -27.6115 21.8568
lfingers 7.12502
lthumb -1.01071 51.8341
rfemur -15.1524 4.52783 21.2764
rtibia 30.9469
rfoot -8.1413 -9.44102
rtoes 14.9905
lfemur -14.4204 -0.241284 -16.4113
ltibia 62.6753
lfoot -3.91063 -0.62661
ltoes -11.6475
44
root 12.2779 18.1331 -12.6089 -4.21211 7.19028 0.715561
lowerback 4.34774 1.09559 -0.640613
upperback 1.65043 1.45063 1.39214
thorax -0.794315 0.721824 1.71488
lowerneck -12.2959 -5.16973 -5.46847
upperneck 27.9785 -6.25412 0.781656
head 11.3155 -3.29789 0.384447
rclavicle -3.44767e-015 -1.03368e-014
rhumerus -13.9199 -10.7626 -84.4474
rradius 40.2799
rwrist -3.7945
rhand -20.8427 37.04
rfingers 7.12502
rthumb 5.52627 7.1321
lclavicle -3.44767e-015 -1.03368e-014
lhumerus -30.3644 -0.225188 89.4877
lradius 43.1039
lwrist 13.564
lhand -28.8626 21.2207
lfingers 7.12502
lthumb -2.21899 51.1889
rfemur -14.7027 4.71026 21.602
rtibia 30.8023
rfoot -8.18925 -9.49584
rtoes 13.0973
lfemur -15.242 -0.0319143 -16.2409
ltibia 62.3044
lfoot -4.59285 -0.196935
ltoes -11.8207
45
root 12.2752 18.1465 -12.5059 -4.10607 7.17705 0.698382
lowerback 4.20138 1.24879 -0.600431
upperback 1.82977 1.65482 1.37232
thorax -0.534106 0.82179 1.66737
lowerneck -12.309 -5.44549 -5.6605
upperneck 27.6985 -6.61685 0.857863
head 11.2361 -3.47153 0.39635
rclavicle 2.14315e-014 1.23246e-014
rhumerus -13.0379 -10.5541 -84.6672
rradius 40.7662
rwrist -4.35122
rhand -21.0755 37.2921
rfingers 7.12502
rthumb 5.30148 7.37846
lclavicle 2.14315e-014 1.23246e-014
lhumerus -30.4195 0.301535 89.4405
lradius 42.5661
lwrist 13.4033
lhand -29.5432 21.6929
lfingers 7.12502
lthumb -2.87628 51.6532
rfemur -14.3942 4.78428 21.6906
rtibia 30.6631
rfoot -8.20802 -9.56376
rtoes 14.8722
lfemur -16.1891 -0.00306978 -16.2885
ltibia 61.8056
lfoot -5.16038 0.0222399
ltoes -11.1007
46
root 12.2688 18.1537 -12.4091 -3.95104 7.2372 0.868792
lowerback 4.15081 1.42473 -0.694957
upperback 1.96237 1.88422 1.29644
thorax -0.378062 0.934808 1.63505
lowerneck -12.7858 -5.68138 -5.9929
upperneck 27.8485 -6.88011 0.987259
head 11.4205 -3.60332 0.444589
rclavicle -1.56916e-014 -5.96354e-015
rhumerus -12.1804 -10.2547 -84.7735
rradius 41.0706
rwrist -5.06084
rhand -21.3228 37.9713
rfingers 7.12502
rthumb 5.06269 8.05177
lclavicle -1.56916e-014 -5.96354e-015
lhumerus -30.3214 0.761383 89.3699
lradius 41.9017
lwrist 13.1768
lhand -28.6409 22.3041
lfingers 7.12502
lthumb -2.00488 52.2744
rfemur -14.0605 4.42375 21.6382
rtibia 30.5176
rfoot -8.4051 -9.59555
rtoes 10.6982
lfemur -17.163 -0.0560495 -16.5315
ltibia 61.1694
lfoot -5.73323 0.26885
ltoes -10.3464
